General
Complete name                  : Katy Perry - Thinking Of You (2012 Extended Video) [UJ.rip].avi
Format                         : AVI
Format/Info                    : Audio Video Interleave
File size                      : 60.7 MiB
Duration                       : 5mn 22s
Overall bit rate               : 1 577 Kbps
Writing application            : Lavf52.39.1

Video
ID                             : 0
Format                         : xvid
Codec ID                       : xvid
Duration                       : 5mn 22s
Bit rate                       : 1 500 Kbps
Width                          : 640 pixels
Height                         : 344 pixels
Display aspect ratio           : 1.860
Frame rate                     : 24.000 fps
Bits/(Pixel*Frame)             : 0.284
Stream size                    : 57.7 MiB (95%)

Audio
ID                             : 1
Format                         : MPEG Audio
Format version                 : Version 1
Format profile                 : Layer 3
Mode                           : Joint stereo
Mode extension                 : MS Stereo
Codec ID                       : 55
Codec ID/Hint                  : MP3
Duration                       : 5mn 22s
Bit rate mode                  : Constant
Bit rate                       : 64.0 Kbps
Channel(s)                     : 2 channels
Sampling rate                  : 44.1 KHz
Compression mode               : Lossy
Stream size                    : 2.46 MiB (4%)
Alignment                      : Aligned on interleaves
Interleave, duration           : 26 ms (0.63 video frame)



=============

CHECK MY PROFILE AND FEEL FREE TO DOWNLOAD MORE WINDOWS SOFTWARE, THEMES, SONGS, MOVIES, LATEST MAGAZINES, EBOOKS AND MUCH MORE STUFF FROM THIS ACCOUNT

------------------------------------------------------------------------------- 
http://thepiratebay.se/user/clueman7
-------------------------------------------------------------------------------



=========================================
DOWNLOAD AND SEED FOR YOUR FRIENDS   ||||
=========================================

=======================